0
SECTION
2
HEADER
9
$HANDSEED
5
A4
9
$INSUNITS
70
5
9
$ACADVER
1
AC1021
0
ENDSEC
0
SECTION
2
CLASSES
0
ENDSEC
0
SECTION
2
TABLES
0
TABLE
2
LTYPE
5
A2
330
0
100
AcDbSymbolTable
70
5
0
LTYPE
5
2
330
A2
100
AcDbSymbolTableRecord
100
AcDbLinetypeTableRecord
2
CONTINUOUS
3
______
70
0
72
65
73
0
40
0
0
LTYPE
5
3
330
A2
100
AcDbSymbolTableRecord
100
AcDbLinetypeTableRecord
2
DASHED
3
_ _ _ 
70
0
72
65
73
2
40
10
49
5
74
0
49
-5
74
0
0
LTYPE
5
4
330
A2
100
AcDbSymbolTableRecord
100
AcDbLinetypeTableRecord
2
DOTTED
3
. . . 
70
0
72
65
73
2
40
5
49
0
74
0
49
-5
74
0
0
LTYPE
5
6
330
A2
100
AcDbSymbolTableRecord
100
AcDbLinetypeTableRecord
2
ByBlock
3

70
0
72
65
73
0
40
0
0
LTYPE
5
7
330
A2
100
AcDbSymbolTableRecord
100
AcDbLinetypeTableRecord
2
ByLayer
3

70
0
72
65
73
0
40
0
0
ENDTAB
0
TABLE
2
LAYER
5
A3
330
0
100
AcDbSymbolTable
70
2
0
LAYER
5
5
330
A3
100
AcDbSymbolTableRecord
100
AcDbLayerTableRecord
2
0
62
7
70
0
6
CONTINUOUS
390
1
0
LAYER
5
16
330
A3
100
AcDbSymbolTableRecord
100
AcDbLayerTableRecord
2
Layer_0
420
0
70
0
6
CONTINUOUS
390
1
0
ENDTAB
0
TABLE
2
VPORT
5
8
330
0
100
AcDbSymbolTable
70
1
0
VPORT
5
E
330
8
100
AcDbSymbolTableRecord
100
AcDbViewportTableRecord
2
*ACTIVE
40
1000
70
0
0
ENDTAB
0
TABLE
2
STYLE
5
9
330
0
100
AcDbSymbolTable
70
1
0
STYLE
5
F
330
9
100
AcDbSymbolTableRecord
100
AcDbTextStyleTableRecord
2
standard
70
0
40
0
41
1
50
0
71
0
42
1
3
txt
4

0
ENDTAB
0
TABLE
2
VIEW
5
A
330
0
100
AcDbSymbolTable
70
0
0
ENDTAB
0
TABLE
2
UCS
5
B
330
0
100
AcDbSymbolTable
70
0
0
ENDTAB
0
TABLE
2
APPID
5
C
330
0
100
AcDbSymbolTable
70
1
0
APPID
5
10
330
C
100
AcDbSymbolTableRecord
100
AcDbRegAppTableRecord
2
ACAD
70
0
0
ENDTAB
0
TABLE
2
DIMSTYLE
5
D
330
0
100
AcDbSymbolTable
100
AcDbDimStyleTable
70
0
71
1
0
ENDTAB
0
TABLE
2
BLOCK_RECORD
5
9F
330
0
100
AcDbSymbolTable
70
2
0
BLOCK_RECORD
5
A0
330
9F
100
AcDbSymbolTableRecord
100
AcDbBlockTableRecord
2
*Model_Space
70
0
280
0
281
1
0
BLOCK_RECORD
5
A1
330
9F
100
AcDbSymbolTableRecord
100
AcDbBlockTableRecord
2
*Paper_Space
70
0
280
0
281
1
0
ENDTAB
0
ENDSEC
0
SECTION
2
BLOCKS
0
BLOCK
5
11
330
0
100
AcDbEntity
100
AcDbBlockBegin
2
*Model_Space
70
0
10
0
20
0
30
0
3
*Model_Space
1

0
ENDBLK
5
12
330
0
100
AcDbEntity
100
AcDbBlockEnd
0
BLOCK
5
13
330
0
100
AcDbEntity
100
AcDbBlockBegin
2
*Paper_Space
70
0
10
0
20
0
30
0
3
*Paper_Space
1

0
ENDBLK
5
14
330
0
100
AcDbEntity
100
AcDbBlockEnd
0
ENDSEC
0
SECTION
2
ENTITIES
0
LINE
5
17
330
11
100
AcDbEntity
100
AcDbLine
8
Layer_0
10
-8.45
20
7.75
30
0
11
8.05
21
7.75
31
0
0
LINE
5
18
330
11
100
AcDbEntity
100
AcDbLine
8
Layer_0
10
8.05
20
7.75
30
0
11
8.05
21
-0.75
31
0
0
LINE
5
19
330
11
100
AcDbEntity
100
AcDbLine
8
Layer_0
10
8.05
20
-0.75
30
0
11
-8.45
21
-0.75
31
0
0
LINE
5
1A
330
11
100
AcDbEntity
100
AcDbLine
8
Layer_0
10
-8.45
20
-0.75
30
0
11
-8.45
21
7.75
31
0
0
LINE
5
1B
330
11
100
AcDbEntity
100
AcDbLine
8
Layer_0
10
-8.25
20
28.89
30
0
11
8.25
21
28.89
31
0
0
LINE
5
1C
330
11
100
AcDbEntity
100
AcDbLine
8
Layer_0
10
8.25
20
28.89
30
0
11
8.25
21
20.39
31
0
0
LINE
5
1D
330
11
100
AcDbEntity
100
AcDbLine
8
Layer_0
10
8.25
20
20.39
30
0
11
-8.25
21
20.39
31
0
0
LINE
5
1E
330
11
100
AcDbEntity
100
AcDbLine
8
Layer_0
10
-8.25
20
20.39
30
0
11
-8.25
21
28.89
31
0
0
LINE
5
1F
330
11
100
AcDbEntity
100
AcDbLine
8
Layer_0
10
-8.1
20
19.5
30
0
11
8.1
21
19.5
31
0
0
LINE
5
20
330
11
100
AcDbEntity
100
AcDbLine
8
Layer_0
10
8.1
20
19.5
30
0
11
8.1
21
8.5
31
0
0
LINE
5
21
330
11
100
AcDbEntity
100
AcDbLine
8
Layer_0
10
8.1
20
8.5
30
0
11
-8.1
21
8.5
31
0
0
LINE
5
22
330
11
100
AcDbEntity
100
AcDbLine
8
Layer_0
10
-8.1
20
8.5
30
0
11
-8.1
21
19.5
31
0
0
LINE
5
23
330
11
100
AcDbEntity
100
AcDbLine
8
Layer_0
10
-8.1
20
-1.46
30
0
11
8.1
21
-1.46
31
0
0
LINE
5
24
330
11
100
AcDbEntity
100
AcDbLine
8
Layer_0
10
8.1
20
-1.46
30
0
11
8.1
21
-12.46
31
0
0
LINE
5
25
330
11
100
AcDbEntity
100
AcDbLine
8
Layer_0
10
8.1
20
-12.46
30
0
11
-8.1
21
-12.46
31
0
0
LINE
5
26
330
11
100
AcDbEntity
100
AcDbLine
8
Layer_0
10
-8.1
20
-12.46
30
0
11
-8.1
21
-1.46
31
0
0
LINE
5
27
330
11
100
AcDbEntity
100
AcDbLine
8
Layer_0
10
8.5
20
8.1
30
0
11
19.5
21
8.1
31
0
0
LINE
5
28
330
11
100
AcDbEntity
100
AcDbLine
8
Layer_0
10
19.5
20
8.1
30
0
11
19.5
21
-0.09999999999999964
31
0
0
LINE
5
29
330
11
100
AcDbEntity
100
AcDbLine
8
Layer_0
10
19.5
20
-0.09999999999999964
30
0
11
8.5
21
-0.09999999999999964
31
0
0
LINE
5
2A
330
11
100
AcDbEntity
100
AcDbLine
8
Layer_0
10
8.5
20
-0.09999999999999964
30
0
11
8.5
21
8.1
31
0
0
LINE
5
2B
330
11
100
AcDbEntity
100
AcDbLine
8
Layer_0
10
8.7
20
-1
30
0
11
19.7
21
-1
31
0
0
LINE
5
2C
330
11
100
AcDbEntity
100
AcDbLine
8
Layer_0
10
19.7
20
-1
30
0
11
19.7
21
-9.2
31
0
0
LINE
5
2D
330
11
100
AcDbEntity
100
AcDbLine
8
Layer_0
10
19.7
20
-9.2
30
0
11
8.7
21
-9.2
31
0
0
LINE
5
2E
330
11
100
AcDbEntity
100
AcDbLine
8
Layer_0
10
8.7
20
-9.2
30
0
11
8.7
21
-1
31
0
0
LINE
5
2F
330
11
100
AcDbEntity
100
AcDbLine
8
Layer_0
10
-20.5
20
8.1
30
0
11
-9.5
21
8.1
31
0
0
LINE
5
30
330
11
100
AcDbEntity
100
AcDbLine
8
Layer_0
10
-9.5
20
8.1
30
0
11
-9.5
21
-0.09999999999999964
31
0
0
LINE
5
31
330
11
100
AcDbEntity
100
AcDbLine
8
Layer_0
10
-9.5
20
-0.09999999999999964
30
0
11
-20.5
21
-0.09999999999999964
31
0
0
LINE
5
32
330
11
100
AcDbEntity
100
AcDbLine
8
Layer_0
10
-20.5
20
-0.09999999999999964
30
0
11
-20.5
21
8.1
31
0
0
LINE
5
33
330
11
100
AcDbEntity
100
AcDbLine
8
Layer_0
10
-24
20
7.5
30
0
11
-23.57142857142857
21
7.5
31
0
0
LINE
5
34
330
11
100
AcDbEntity
100
AcDbLine
8
Layer_0
10
-23.57142857142857
20
7.5
30
0
11
-23.57142857142857
21
0.32972440999999986
31
0
0
LINE
5
35
330
11
100
AcDbEntity
100
AcDbLine
8
Layer_0
10
-23.57142857142857
20
0.32972440999999986
30
0
11
-24
21
0.32972440999999986
31
0
0
LINE
5
36
330
11
100
AcDbEntity
100
AcDbLine
8
Layer_0
10
-24
20
0.32972440999999986
30
0
11
-24
21
7.5
31
0
0
LINE
5
37
330
11
100
AcDbEntity
100
AcDbLine
8
Layer_0
10
-23.142857142857142
20
7.5
30
0
11
-22.71428571428571
21
7.5
31
0
0
LINE
5
38
330
11
100
AcDbEntity
100
AcDbLine
8
Layer_0
10
-22.71428571428571
20
7.5
30
0
11
-22.71428571428571
21
0.32972440999999986
31
0
0
LINE
5
39
330
11
100
AcDbEntity
100
AcDbLine
8
Layer_0
10
-22.71428571428571
20
0.32972440999999986
30
0
11
-23.142857142857142
21
0.32972440999999986
31
0
0
LINE
5
3A
330
11
100
AcDbEntity
100
AcDbLine
8
Layer_0
10
-23.142857142857142
20
0.32972440999999986
30
0
11
-23.142857142857142
21
7.5
31
0
0
LINE
5
3B
330
11
100
AcDbEntity
100
AcDbLine
8
Layer_0
10
-22.28571428571428
20
7.5
30
0
11
-21.85714285714285
21
7.5
31
0
0
LINE
5
3C
330
11
100
AcDbEntity
100
AcDbLine
8
Layer_0
10
-21.85714285714285
20
7.5
30
0
11
-21.85714285714285
21
0.32972440999999986
31
0
0
LINE
5
3D
330
11
100
AcDbEntity
100
AcDbLine
8
Layer_0
10
-21.85714285714285
20
0.32972440999999986
30
0
11
-22.28571428571428
21
0.32972440999999986
31
0
0
LINE
5
3E
330
11
100
AcDbEntity
100
AcDbLine
8
Layer_0
10
-22.28571428571428
20
0.32972440999999986
30
0
11
-22.28571428571428
21
7.5
31
0
0
LINE
5
3F
330
11
100
AcDbEntity
100
AcDbLine
8
Layer_0
10
-21.42857142857143
20
7.5
30
0
11
-21
21
7.5
31
0
0
LINE
5
40
330
11
100
AcDbEntity
100
AcDbLine
8
Layer_0
10
-21
20
7.5
30
0
11
-21
21
0.32972440999999986
31
0
0
LINE
5
41
330
11
100
AcDbEntity
100
AcDbLine
8
Layer_0
10
-21
20
0.32972440999999986
30
0
11
-21.42857142857143
21
0.32972440999999986
31
0
0
LINE
5
42
330
11
100
AcDbEntity
100
AcDbLine
8
Layer_0
10
-21.42857142857143
20
0.32972440999999986
30
0
11
-21.42857142857143
21
7.5
31
0
0
LINE
5
43
330
11
100
AcDbEntity
100
AcDbLine
8
Layer_0
10
10
20
-6.5
30
0
11
12
21
-6.5
31
0
0
LINE
5
44
330
11
100
AcDbEntity
100
AcDbLine
8
Layer_0
10
12
20
-6.5
30
0
11
12
21
-8.5
31
0
0
LINE
5
45
330
11
100
AcDbEntity
100
AcDbLine
8
Layer_0
10
12
20
-8.5
30
0
11
10
21
-8.5
31
0
0
LINE
5
46
330
11
100
AcDbEntity
100
AcDbLine
8
Layer_0
10
10
20
-8.5
30
0
11
10
21
-6.5
31
0
0
LINE
5
47
330
11
100
AcDbEntity
100
AcDbLine
8
Layer_0
10
-12.6
20
6.9
30
0
11
-10.174999999999999
21
6.9
31
0
0
LINE
5
48
330
11
100
AcDbEntity
100
AcDbLine
8
Layer_0
10
-10.174999999999999
20
6.9
30
0
11
-10.174999999999999
21
0.8999999999999999
31
0
0
LINE
5
49
330
11
100
AcDbEntity
100
AcDbLine
8
Layer_0
10
-10.174999999999999
20
0.8999999999999999
30
0
11
-12.6
21
0.8999999999999999
31
0
0
LINE
5
4A
330
11
100
AcDbEntity
100
AcDbLine
8
Layer_0
10
-12.6
20
0.8999999999999999
30
0
11
-12.6
21
6.9
31
0
0
LINE
5
4B
330
11
100
AcDbEntity
100
AcDbLine
8
Layer_0
10
17
20
-6.5
30
0
11
19
21
-6.5
31
0
0
LINE
5
4C
330
11
100
AcDbEntity
100
AcDbLine
8
Layer_0
10
19
20
-6.5
30
0
11
19
21
-8.5
31
0
0
LINE
5
4D
330
11
100
AcDbEntity
100
AcDbLine
8
Layer_0
10
19
20
-8.5
30
0
11
17
21
-8.5
31
0
0
LINE
5
4E
330
11
100
AcDbEntity
100
AcDbLine
8
Layer_0
10
17
20
-8.5
30
0
11
17
21
-6.5
31
0
0
LINE
5
4F
330
11
100
AcDbEntity
100
AcDbLine
8
Layer_0
10
17
20
-1.5
30
0
11
19
21
-1.5
31
0
0
LINE
5
50
330
11
100
AcDbEntity
100
AcDbLine
8
Layer_0
10
19
20
-1.5
30
0
11
19
21
-3.5
31
0
0
LINE
5
51
330
11
100
AcDbEntity
100
AcDbLine
8
Layer_0
10
19
20
-3.5
30
0
11
17
21
-3.5
31
0
0
LINE
5
52
330
11
100
AcDbEntity
100
AcDbLine
8
Layer_0
10
17
20
-3.5
30
0
11
17
21
-1.5
31
0
0
SPLINE
5
53
330
11
100
AcDbEntity
100
AcDbSpline
8
Layer_0
210
0
220
0
230
1
70
8
71
3
72
8
73
4
74
0
42
1e-7
43
1e-7
44
1e-10
40
0
40
0
40
0
40
0
40
1
40
1
40
1
40
1
10
-6.004273185065228
20
28.184682879681795
30
0
10
-5.878691759585372
20
28.27369074323587
30
0
10
-5.709556672764014
20
28.269630606009834
30
0
10
-5.588390756036959
20
28.174699500339955
30
0
0
SPLINE
5
54
330
11
100
AcDbEntity
100
AcDbSpline
8
Layer_0
210
0
220
0
230
1
70
8
71
3
72
8
73
4
74
0
42
1e-7
43
1e-7
44
1e-10
40
0
40
0
40
0
40
0
40
1
40
1
40
1
40
1
10
-5.588390756036959
20
28.174699500339955
30
0
10
-5.501880696351507
20
28.106920575050207
30
0
10
-5.452468137954644
20
28.002261918647644
30
0
10
-5.455105555769522
20
27.89239373777855
30
0
0
SPLINE
5
55
330
11
100
AcDbEntity
100
AcDbSpline
8
Layer_0
210
0
220
0
230
1
70
8
71
3
72
8
73
4
74
0
42
1e-7
43
1e-7
44
1e-10
40
0
40
0
40
0
40
0
40
1
40
1
40
1
40
1
10
-5.455105555769522
20
27.89239373777855
30
0
10
-5.457742973584399
20
27.78252555690946
30
0
10
-5.512120445866878
20
27.680358410548795
30
0
10
-5.6017830911643935
20
27.616808562567343
30
0
0
LINE
5
56
330
11
100
AcDbEntity
100
AcDbLine
8
Layer_0
10
-5.6017830911643935
20
27.616808562567343
30
0
11
-6.846179056690203
21
26.734822823963576
31
0
0
SPLINE
5
57
330
11
100
AcDbEntity
100
AcDbSpline
8
Layer_0
210
0
220
0
230
1
70
8
71
3
72
8
73
4
74
0
42
1e-7
43
1e-7
44
1e-10
40
0
40
0
40
0
40
0
40
1
40
1
40
1
40
1
10
-6.846179056690203
20
26.734822823963576
30
0
10
-6.971760482170058
20
26.6458149604095
30
0
10
-7.140895568991416
20
26.649875097635537
30
0
10
-7.262061485718472
20
26.744806203305416
30
0
0
SPLINE
5
58
330
11
100
AcDbEntity
100
AcDbSpline
8
Layer_0
210
0
220
0
230
1
70
8
71
3
72
8
73
4
74
0
42
1e-7
43
1e-7
44
1e-10
40
0
40
0
40
0
40
0
40
1
40
1
40
1
40
1
10
-7.262061485718472
20
26.744806203305416
30
0
10
-7.3485715454039235
20
26.812585128595163
30
0
10
-7.397984103800787
20
26.917243784997726
30
0
10
-7.395346685985909
20
27.02711196586682
30
0
0
SPLINE
5
59
330
11
100
AcDbEntity
100
AcDbSpline
8
Layer_0
210
0
220
0
230
1
70
8
71
3
72
8
73
4
74
0
42
1e-7
43
1e-7
44
1e-10
40
0
40
0
40
0
40
0
40
1
40
1
40
1
40
1
10
-7.395346685985909
20
27.02711196586682
30
0
10
-7.392709268171031
20
27.13698014673591
30
0
10
-7.338331795888552
20
27.239147293096575
30
0
10
-7.248669150591036
20
27.302697141078028
30
0
0
LINE
5
5A
330
11
100
AcDbEntity
100
AcDbLine
8
Layer_0
10
-7.248669150591036
20
27.302697141078028
30
0
11
-6.004273185065228
21
28.184682879681795
31
0
0
SPLINE
5
5B
330
11
100
AcDbEntity
100
AcDbSpline
8
Layer_0
210
0
220
0
230
1
70
8
71
3
72
8
73
4
74
0
42
1e-7
43
1e-7
44
1e-10
40
0
40
0
40
0
40
0
40
1
40
1
40
1
40
1
10
-3.258914205527885
20
28.22621457511938
30
0
10
-3.13333278004803
20
28.315222438673455
30
0
10
-2.9641976932266725
20
28.311162301447418
30
0
10
-2.843031776499617
20
28.21623119577754
30
0
0
LINE
5
5C
330
11
100
AcDbEntity
100
AcDbLine
8
Layer_0
10
-2.843031776499617
20
28.21623119577754
30
0
11
-2.8430317764996165
21
28.21623119577754
31
0
0
SPLINE
5
5D
330
11
100
AcDbEntity
100
AcDbSpline
8
Layer_0
210
0
220
0
230
1
70
8
71
3
72
8
73
4
74
0
42
1e-7
43
1e-7
44
1e-10
40
0
40
0
40
0
40
0
40
1
40
1
40
1
40
1
10
-2.8430317764996165
20
28.21623119577754
30
0
10
-2.7565217168141647
20
28.14845227048779
30
0
10
-2.7071091584173015
20
28.043793614085228
30
0
10
-2.7097465762321797
20
27.933925433216135
30
0
0
SPLINE
5
5E
330
11
100
AcDbEntity
100
AcDbSpline
8
Layer_0
210
0
220
0
230
1
70
8
71
3
72
8
73
4
74
0
42
1e-7
43
1e-7
44
1e-10
40
0
40
0
40
0
40
0
40
1
40
1
40
1
40
1
10
-2.7097465762321797
20
27.933925433216135
30
0
10
-2.712383994047058
20
27.824057252347043
30
0
10
-2.766761466329536
20
27.72189010598638
30
0
10
-2.856424111627052
20
27.658340258004927
30
0
0
LINE
5
5F
330
11
100
AcDbEntity
100
AcDbLine
8
Layer_0
10
-2.856424111627052
20
27.658340258004927
30
0
11
-6.8424397710550275
21
24.83318728189311
31
0
0
SPLINE
5
60
330
11
100
AcDbEntity
100
AcDbSpline
8
Layer_0
210
0
220
0
230
1
70
8
71
3
72
8
73
4
74
0
42
1e-7
43
1e-7
44
1e-10
40
0
40
0
40
0
40
0
40
1
40
1
40
1
40
1
10
-6.8424397710550275
20
24.83318728189311
30
0
10
-6.968021196534883
20
24.744179418339034
30
0
10
-7.137156283356242
20
24.74823955556507
30
0
10
-7.258322200083297
20
24.84317066123495
30
0
0
SPLINE
5
61
330
11
100
AcDbEntity
100
AcDbSpline
8
Layer_0
210
0
220
0
230
1
70
8
71
3
72
8
73
4
74
0
42
1e-7
43
1e-7
44
1e-10
40
0
40
0
40
0
40
0
40
1
40
1
40
1
40
1
10
-7.258322200083297
20
24.84317066123495
30
0
10
-7.344832259768749
20
24.910949586524698
30
0
10
-7.394244818165612
20
25.01560824292726
30
0
10
-7.3916074003507335
20
25.125476423796353
30
0
0
SPLINE
5
62
330
11
100
AcDbEntity
100
AcDbSpline
8
Layer_0
210
0
220
0
230
1
70
8
71
3
72
8
73
4
74
0
42
1e-7
43
1e-7
44
1e-10
40
0
40
0
40
0
40
0
40
1
40
1
40
1
40
1
10
-7.3916074003507335
20
25.125476423796353
30
0
10
-7.388969982535855
20
25.235344604665446
30
0
10
-7.334592510253378
20
25.33751175102611
30
0
10
-7.2449298649558616
20
25.401061599007562
30
0
0
LINE
5
63
330
11
100
AcDbEntity
100
AcDbLine
8
Layer_0
10
-7.2449298649558616
20
25.401061599007562
30
0
11
-3.258914205527885
21
28.22621457511938
31
0
0
SPLINE
5
64
330
11
100
AcDbEntity
100
AcDbSpline
8
Layer_0
210
0
220
0
230
1
70
8
71
3
72
8
73
4
74
0
42
1e-7
43
1e-7
44
1e-10
40
0
40
0
40
0
40
0
40
1
40
1
40
1
40
1
10
-0.7764803297209688
20
28.05746063919694
30
0
10
-0.6508989042411137
20
28.146468502751016
30
0
10
-0.4817638174197557
20
28.14240836552498
30
0
10
-0.3605979006926998
20
28.0474772598551
30
0
0
SPLINE
5
65
330
11
100
AcDbEntity
100
AcDbSpline
8
Layer_0
210
0
220
0
230
1
70
8
71
3
72
8
73
4
74
0
42
1e-7
43
1e-7
44
1e-10
40
0
40
0
40
0
40
0
40
1
40
1
40
1
40
1
10
-0.3605979006926998
20
28.0474772598551
30
0
10
-0.274087841007248
20
27.979698334565352
30
0
10
-0.2246752826103846
20
27.87503967816279
30
0
10
-0.2273127004252628
20
27.765171497293696
30
0
0
SPLINE
5
66
330
11
100
AcDbEntity
100
AcDbSpline
8
Layer_0
210
0
220
0
230
1
70
8
71
3
72
8
73
4
74
0
42
1e-7
43
1e-7
44
1e-10
40
0
40
0
40
0
40
0
40
1
40
1
40
1
40
1
10
-0.2273127004252628
20
27.765171497293696
30
0
10
-0.229950118240141
20
27.655303316424604
30
0
10
-0.284327590522619
20
27.55313617006394
30
0
10
-0.373990235820135
20
27.489586322082488
30
0
0
LINE
5
67
330
11
100
AcDbEntity
100
AcDbLine
8
Layer_0
10
-0.373990235820135
20
27.489586322082488
30
0
11
-6.63547579029885
21
23.051657307108343
31
0
0
SPLINE
5
68
330
11
100
AcDbEntity
100
AcDbSpline
8
Layer_0
210
0
220
0
230
1
70
8
71
3
72
8
73
4
74
0
42
1e-7
43
1e-7
44
1e-10
40
0
40
0
40
0
40
0
40
1
40
1
40
1
40
1
10
-6.63547579029885
20
23.051657307108343
30
0
10
-6.761057215778705
20
22.962649443554266
30
0
10
-6.930192302600065
20
22.966709580780304
30
0
10
-7.0513582193271205
20
23.061640686450183
30
0
0
SPLINE
5
69
330
11
100
AcDbEntity
100
AcDbSpline
8
Layer_0
210
0
220
0
230
1
70
8
71
3
72
8
73
4
74
0
42
1e-7
43
1e-7
44
1e-10
40
0
40
0
40
0
40
0
40
1
40
1
40
1
40
1
10
-7.0513582193271205
20
23.061640686450183
30
0
10
-7.137868279012572
20
23.12941961173993
30
0
10
-7.187280837409435
20
23.234078268142493
30
0
10
-7.184643419594557
20
23.343946449011586
30
0
0
SPLINE
5
6A
330
11
100
AcDbEntity
100
AcDbSpline
8
Layer_0
210
0
220
0
230
1
70
8
71
3
72
8
73
4
74
0
42
1e-7
43
1e-7
44
1e-10
40
0
40
0
40
0
40
0
40
1
40
1
40
1
40
1
10
-7.184643419594557
20
23.343946449011586
30
0
10
-7.182006001779679
20
23.45381462988068
30
0
10
-7.127628529497201
20
23.555981776241342
30
0
10
-7.037965884199685
20
23.619531624222795
30
0
0
LINE
5
6B
330
11
100
AcDbEntity
100
AcDbLine
8
Layer_0
10
-7.037965884199685
20
23.619531624222795
30
0
11
-0.7764803297209688
21
28.05746063919694
31
0
0
SPLINE
5
6C
330
11
100
AcDbEntity
100
AcDbSpline
8
Layer_0
210
0
220
0
230
1
70
8
71
3
72
8
73
4
74
0
42
1e-7
43
1e-7
44
1e-10
40
0
40
0
40
0
40
0
40
1
40
1
40
1
40
1
10
2.1080409529023076
20
27.99123988150533
30
0
10
2.2336223783821625
20
28.080247745059406
30
0
10
2.4027574652035195
20
28.07618760783337
30
0
10
2.523923381930575
20
27.98125650216349
30
0
0
SPLINE
5
6D
330
11
100
AcDbEntity
100
AcDbSpline
8
Layer_0
210
0
220
0
230
1
70
8
71
3
72
8
73
4
74
0
42
1e-7
43
1e-7
44
1e-10
40
0
40
0
40
0
40
0
40
1
40
1
40
1
40
1
10
2.523923381930575
20
27.98125650216349
30
0
10
2.610433441616027
20
27.913477576873742
30
0
10
2.6598460000128905
20
27.80881892047118
30
0
10
2.6572085821980123
20
27.698950739602086
30
0
0
SPLINE
5
6E
330
11
100
AcDbEntity
100
AcDbSpline
8
Layer_0
210
0
220
0
230
1
70
8
71
3
72
8
73
4
74
0
42
1e-7
43
1e-7
44
1e-10
40
0
40
0
40
0
40
0
40
1
40
1
40
1
40
1
10
2.6572085821980123
20
27.698950739602086
30
0
10
2.654571164383134
20
27.589082558732994
30
0
10
2.600193692100656
20
27.48691541237233
30
0
10
2.51053104680314
20
27.423365564390878
30
0
0
LINE
5
6F
330
11
100
AcDbEntity
100
AcDbLine
8
Layer_0
10
2.51053104680314
20
27.423365564390878
30
0
11
-6.24058841808972
21
21.220868305737326
31
0
0
SPLINE
5
70
330
11
100
AcDbEntity
100
AcDbSpline
8
Layer_0
210
0
220
0
230
1
70
8
71
3
72
8
73
4
74
0
42
1e-7
43
1e-7
44
1e-10
40
0
40
0
40
0
40
0
40
1
40
1
40
1
40
1
10
-6.24058841808972
20
21.220868305737326
30
0
10
-6.366169843569575
20
21.13186044218325
30
0
10
-6.535304930390935
20
21.135920579409287
30
0
10
-6.6564708471179905
20
21.230851685079166
30
0
0
SPLINE
5
71
330
11
100
AcDbEntity
100
AcDbSpline
8
Layer_0
210
0
220
0
230
1
70
8
71
3
72
8
73
4
74
0
42
1e-7
43
1e-7
44
1e-10
40
0
40
0
40
0
40
0
40
1
40
1
40
1
40
1
10
-6.6564708471179905
20
21.230851685079166
30
0
10
-6.742980906803442
20
21.298630610368914
30
0
10
-6.7923934652003055
20
21.403289266771477
30
0
10
-6.789756047385428
20
21.51315744764057
30
0
0
SPLINE
5
72
330
11
100
AcDbEntity
100
AcDbSpline
8
Layer_0
210
0
220
0
230
1
70
8
71
3
72
8
73
4
74
0
42
1e-7
43
1e-7
44
1e-10
40
0
40
0
40
0
40
0
40
1
40
1
40
1
40
1
10
-6.789756047385428
20
21.51315744764057
30
0
10
-6.78711862957055
20
21.623025628509662
30
0
10
-6.732741157288071
20
21.725192774870326
30
0
10
-6.643078511990556
20
21.788742622851778
30
0
0
LINE
5
73
330
11
100
AcDbEntity
100
AcDbLine
8
Layer_0
10
-6.643078511990556
20
21.788742622851778
30
0
11
2.1080409529023076
21
27.99123988150533
31
0
0
SPLINE
5
74
330
11
100
AcDbEntity
100
AcDbSpline
8
Layer_0
210
0
220
0
230
1
70
8
71
3
72
8
73
4
74
0
42
1e-7
43
1e-7
44
1e-10
40
0
40
0
40
0
40
0
40
1
40
1
40
1
40
1
10
5.130598563456025
20
27.973566438601758
30
0
10
5.25617998893588
20
28.062574302155834
30
0
10
5.425315075757238
20
28.058514164929797
30
0
10
5.546480992484294
20
27.963583059259918
30
0
0
SPLINE
5
75
330
11
100
AcDbEntity
100
AcDbSpline
8
Layer_0
210
0
220
0
230
1
70
8
71
3
72
8
73
4
74
0
42
1e-7
43
1e-7
44
1e-10
40
0
40
0
40
0
40
0
40
1
40
1
40
1
40
1
10
5.546480992484294
20
27.963583059259918
30
0
10
5.6329910521697455
20
27.895804133970167
30
0
10
5.682403610566608
20
27.791145477567607
30
0
10
5.67976619275173
20
27.681277296698514
30
0
0
SPLINE
5
76
330
11
100
AcDbEntity
100
AcDbSpline
8
Layer_0
210
0
220
0
230
1
70
8
71
3
72
8
73
4
74
0
42
1e-7
43
1e-7
44
1e-10
40
0
40
0
40
0
40
0
40
1
40
1
40
1
40
1
10
5.67976619275173
20
27.681277296698514
30
0
10
5.677128774936852
20
27.57140911582942
30
0
10
5.6227513026543745
20
27.469241969468758
30
0
10
5.533088657356858
20
27.405692121487306
30
0
0
LINE
5
77
330
11
100
AcDbEntity
100
AcDbLine
8
Layer_0
10
5.533088657356858
20
27.405692121487306
30
0
11
-2.692996697157789
21
21.575321268305053
31
0
0
SPLINE
5
78
330
11
100
AcDbEntity
100
AcDbSpline
8
Layer_0
210
0
220
0
230
1
70
8
71
3
72
8
73
4
74
0
42
1e-7
43
1e-7
44
1e-10
40
0
40
0
40
0
40
0
40
1
40
1
40
1
40
1
10
-2.692996697157789
20
21.575321268305053
30
0
10
-2.818578122637644
20
21.486313404750977
30
0
10
-2.9877132094590038
20
21.490373541977014
30
0
10
-3.1088791261860593
20
21.585304647646893
30
0
0
SPLINE
5
79
330
11
100
AcDbEntity
100
AcDbSpline
8
Layer_0
210
0
220
0
230
1
70
8
71
3
72
8
73
4
74
0
42
1e-7
43
1e-7
44
1e-10
40
0
40
0
40
0
40
0
40
1
40
1
40
1
40
1
10
-3.1088791261860593
20
21.585304647646893
30
0
10
-3.195389185871511
20
21.653083572936644
30
0
10
-3.2448017442683743
20
21.757742229339204
30
0
10
-3.242164326453496
20
21.867610410208297
30
0
0
SPLINE
5
7A
330
11
100
AcDbEntity
100
AcDbSpline
8
Layer_0
210
0
220
0
230
1
70
8
71
3
72
8
73
4
74
0
42
1e-7
43
1e-7
44
1e-10
40
0
40
0
40
0
40
0
40
1
40
1
40
1
40
1
10
-3.242164326453496
20
21.867610410208297
30
0
10
-3.239526908638618
20
21.97747859107739
30
0
10
-3.1851494363561397
20
22.079645737438053
30
0
10
-3.0954867910586237
20
22.143195585419505
30
0
0
LINE
5
7B
330
11
100
AcDbEntity
100
AcDbLine
8
Layer_0
10
-3.0954867910586237
20
22.143195585419505
30
0
11
5.130598563456025
21
27.973566438601758
31
0
0
SPLINE
5
7C
330
11
100
AcDbEntity
100
AcDbSpline
8
Layer_0
210
0
220
0
230
1
70
8
71
3
72
8
73
4
74
0
42
1e-7
43
1e-7
44
1e-10
40
0
40
0
40
0
40
0
40
1
40
1
40
1
40
1
10
6.012961718407708
20
26.565696878298112
30
0
10
6.1385431438875635
20
26.65470474185219
30
0
10
6.3076782307089205
20
26.65064460462615
30
0
10
6.428844147435977
20
26.555713498956273
30
0
0
LINE
5
7D
330
11
100
AcDbEntity
100
AcDbLine
8
Layer_0
10
6.428844147435977
20
26.555713498956273
30
0
11
6.428844147435978
21
26.555713498956273
31
0
0
SPLINE
5
7E
330
11
100
AcDbEntity
100
AcDbSpline
8
Layer_0
210
0
220
0
230
1
70
8
71
3
72
8
73
4
74
0
42
1e-7
43
1e-7
44
1e-10
40
0
40
0
40
0
40
0
40
1
40
1
40
1
40
1
10
6.428844147435978
20
26.555713498956273
30
0
10
6.51535420712143
20
26.48793457366652
30
0
10
6.564766765518293
20
26.383275917263962
30
0
10
6.562129347703414
20
26.27340773639487
30
0
0
SPLINE
5
7F
330
11
100
AcDbEntity
100
AcDbSpline
8
Layer_0
210
0
220
0
230
1
70
8
71
3
72
8
73
4
74
0
42
1e-7
43
1e-7
44
1e-10
40
0
40
0
40
0
40
0
40
1
40
1
40
1
40
1
10
6.562129347703414
20
26.27340773639487
30
0
10
6.5594919298885355
20
26.163539555525777
30
0
10
6.505114457606058
20
26.061372409165113
30
0
10
6.415451812308541
20
25.99782256118366
30
0
0
LINE
5
80
330
11
100
AcDbEntity
100
AcDbLine
8
Layer_0
10
6.415451812308541
20
25.99782256118366
30
0
11
-0.2803795950203316
21
21.25204390795257
31
0
0
SPLINE
5
81
330
11
100
AcDbEntity
100
AcDbSpline
8
Layer_0
210
0
220
0
230
1
70
8
71
3
72
8
73
4
74
0
42
1e-7
43
1e-7
44
1e-10
40
0
40
0
40
0
40
0
40
1
40
1
40
1
40
1
10
-0.2803795950203316
20
21.25204390795257
30
0
10
-0.40596102050018673
20
21.163036044398492
30
0
10
-0.5750961073215439
20
21.16709618162453
30
0
10
-0.6962620240485998
20
21.26202728729441
30
0
0
SPLINE
5
82
330
11
100
AcDbEntity
100
AcDbSpline
8
Layer_0
210
0
220
0
230
1
70
8
71
3
72
8
73
4
74
0
42
1e-7
43
1e-7
44
1e-10
40
0
40
0
40
0
40
0
40
1
40
1
40
1
40
1
10
-0.6962620240485998
20
21.26202728729441
30
0
10
-0.7827720837340517
20
21.329806212584156
30
0
10
-0.832184642130915
20
21.43446486898672
30
0
10
-0.8295472243160368
20
21.544333049855812
30
0
0
SPLINE
5
83
330
11
100
AcDbEntity
100
AcDbSpline
8
Layer_0
210
0
220
0
230
1
70
8
71
3
72
8
73
4
74
0
42
1e-7
43
1e-7
44
1e-10
40
0
40
0
40
0
40
0
40
1
40
1
40
1
40
1
10
-0.8295472243160368
20
21.544333049855812
30
0
10
-0.8269098065011585
20
21.654201230724905
30
0
10
-0.7725323342186805
20
21.75636837708557
30
0
10
-0.6828696889211645
20
21.81991822506702
30
0
0
LINE
5
84
330
11
100
AcDbEntity
100
AcDbLine
8
Layer_0
10
-0.6828696889211645
20
21.81991822506702
30
0
11
6.012961718407708
21
26.565696878298112
31
0
0
SPLINE
5
85
330
11
100
AcDbEntity
100
AcDbSpline
8
Layer_0
210
0
220
0
230
1
70
8
71
3
72
8
73
4
74
0
42
1e-7
43
1e-7
44
1e-10
40
0
40
0
40
0
40
0
40
1
40
1
40
1
40
1
10
6.379050097795629
20
24.67064969947037
30
0
10
6.504631523275482
20
24.759657563024447
30
0
10
6.673766610096838
20
24.755597425798406
30
0
10
6.794932526823892
20
24.66066632012853
30
0
0
SPLINE
5
86
330
11
100
AcDbEntity
100
AcDbSpline
8
Layer_0
210
0
220
0
230
1
70
8
71
3
72
8
73
4
74
0
42
1e-7
43
1e-7
44
1e-10
40
0
40
0
40
0
40
0
40
1
40
1
40
1
40
1
10
6.794932526823892
20
24.66066632012853
30
0
10
6.881442586509344
20
24.592887394838783
30
0
10
6.930855144906207
20
24.48822873843622
30
0
10
6.928217727091329
20
24.378360557567127
30
0
0
SPLINE
5
87
330
11
100
AcDbEntity
100
AcDbSpline
8
Layer_0
210
0
220
0
230
1
70
8
71
3
72
8
73
4
74
0
42
1e-7
43
1e-7
44
1e-10
40
0
40
0
40
0
40
0
40
1
40
1
40
1
40
1
10
6.928217727091329
20
24.378360557567127
30
0
10
6.925580309276452
20
24.268492376698035
30
0
10
6.871202836993973
20
24.16632523033737
30
0
10
6.781540191696457
20
24.10277538235592
30
0
0
LINE
5
88
330
11
100
AcDbEntity
100
AcDbLine
8
Layer_0
10
6.781540191696457
20
24.10277538235592
30
0
11
2.73853134178259
21
21.237227561999454
31
0
0
SPLINE
5
89
330
11
100
AcDbEntity
100
AcDbSpline
8
Layer_0
210
0
220
0
230
1
70
8
71
3
72
8
73
4
74
0
42
1e-7
43
1e-7
44
1e-10
40
0
40
0
40
0
40
0
40
1
40
1
40
1
40
1
10
2.73853134178259
20
21.237227561999454
30
0
10
2.6129499163027368
20
21.14821969844538
30
0
10
2.4438148294813784
20
21.152279835671415
30
0
10
2.322648912754324
20
21.24721094134129
30
0
0
SPLINE
5
8A
330
11
100
AcDbEntity
100
AcDbSpline
8
Layer_0
210
0
220
0
230
1
70
8
71
3
72
8
73
4
74
0
42
1e-7
43
1e-7
44
1e-10
40
0
40
0
40
0
40
0
40
1
40
1
40
1
40
1
10
2.322648912754324
20
21.24721094134129
30
0
10
2.236138853068872
20
21.314989866631038
30
0
10
2.1867262946720083
20
21.4196485230336
30
0
10
2.1893637124868865
20
21.529516703902694
30
0
0
SPLINE
5
8B
330
11
100
AcDbEntity
100
AcDbSpline
8
Layer_0
210
0
220
0
230
1
70
8
71
3
72
8
73
4
74
0
42
1e-7
43
1e-7
44
1e-10
40
0
40
0
40
0
40
0
40
1
40
1
40
1
40
1
10
2.1893637124868865
20
21.529516703902694
30
0
10
2.192001130301765
20
21.639384884771786
30
0
10
2.246378602584243
20
21.74155203113245
30
0
10
2.336041247881759
20
21.805101879113902
30
0
0
LINE
5
8C
330
11
100
AcDbEntity
100
AcDbLine
8
Layer_0
10
2.336041247881759
20
21.805101879113902
30
0
11
6.379050097795629
21
24.67064969947037
31
0
0
SPLINE
5
8D
330
11
100
AcDbEntity
100
AcDbSpline
8
Layer_0
210
0
220
0
230
1
70
8
71
3
72
8
73
4
74
0
42
1e-7
43
1e-7
44
1e-10
40
0
40
0
40
0
40
0
40
1
40
1
40
1
40
1
10
6.400937929710984
20
22.653501014918085
30
0
10
6.526519355190839
20
22.74250887847216
30
0
10
6.695654442012196
20
22.738448741246124
30
0
10
6.8168203587392515
20
22.643517635576245
30
0
0
SPLINE
5
8E
330
11
100
AcDbEntity
100
AcDbSpline
8
Layer_0
210
0
220
0
230
1
70
8
71
3
72
8
73
4
74
0
42
1e-7
43
1e-7
44
1e-10
40
0
40
0
40
0
40
0
40
1
40
1
40
1
40
1
10
6.8168203587392515
20
22.643517635576245
30
0
10
6.903330418424703
20
22.575738710286497
30
0
10
6.952742976821566
20
22.471080053883934
30
0
10
6.950105559006688
20
22.36121187301484
30
0
0
SPLINE
5
8F
330
11
100
AcDbEntity
100
AcDbSpline
8
Layer_0
210
0
220
0
230
1
70
8
71
3
72
8
73
4
74
0
42
1e-7
43
1e-7
44
1e-10
40
0
40
0
40
0
40
0
40
1
40
1
40
1
40
1
10
6.950105559006688
20
22.36121187301484
30
0
10
6.94746814119181
20
22.25134369214575
30
0
10
6.893090668909331
20
22.149176545785085
30
0
10
6.803428023611816
20
22.085626697803633
30
0
0
LINE
5
90
330
11
100
AcDbEntity
100
AcDbLine
8
Layer_0
10
6.803428023611816
20
22.085626697803633
30
0
11
5.499995548070875
21
21.16179787923754
31
0
0
SPLINE
5
91
330
11
100
AcDbEntity
100
AcDbSpline
8
Layer_0
210
0
220
0
230
1
70
8
71
3
72
8
73
4
74
0
42
1e-7
43
1e-7
44
1e-10
40
0
40
0
40
0
40
0
40
1
40
1
40
1
40
1
10
5.499995548070875
20
21.16179787923754
30
0
10
5.37441412259102
20
21.072790015683463
30
0
10
5.205279035769661
20
21.0768501529095
30
0
10
5.084113119042605
20
21.17178125857938
30
0
0
SPLINE
5
92
330
11
100
AcDbEntity
100
AcDbSpline
8
Layer_0
210
0
220
0
230
1
70
8
71
3
72
8
73
4
74
0
42
1e-7
43
1e-7
44
1e-10
40
0
40
0
40
0
40
0
40
1
40
1
40
1
40
1
10
5.084113119042605
20
21.17178125857938
30
0
10
4.997603059357154
20
21.239560183869127
30
0
10
4.948190500960291
20
21.34421884027169
30
0
10
4.950827918775169
20
21.454087021140783
30
0
0
SPLINE
5
93
330
11
100
AcDbEntity
100
AcDbSpline
8
Layer_0
210
0
220
0
230
1
70
8
71
3
72
8
73
4
74
0
42
1e-7
43
1e-7
44
1e-10
40
0
40
0
40
0
40
0
40
1
40
1
40
1
40
1
10
4.950827918775169
20
21.454087021140783
30
0
10
4.953465336590047
20
21.563955202009875
30
0
10
5.0078428088725255
20
21.66612234837054
30
0
10
5.097505454170041
20
21.72967219635199
30
0
0
LINE
5
94
330
11
100
AcDbEntity
100
AcDbLine
8
Layer_0
10
5.097505454170041
20
21.72967219635199
30
0
11
6.400937929710984
21
22.653501014918085
31
0
0
LINE
5
95
330
11
100
AcDbEntity
100
AcDbLine
8
Layer_0
10
-19.825
20
16.9
30
0
11
-10.575
21
16.9
31
0
0
LINE
5
96
330
11
100
AcDbEntity
100
AcDbLine
8
Layer_0
10
-10.575
20
16.9
30
0
11
-10.575
21
8.700000000000001
31
0
0
LINE
5
97
330
11
100
AcDbEntity
100
AcDbLine
8
Layer_0
10
-10.575
20
8.700000000000001
30
0
11
-19.825
21
8.700000000000001
31
0
0
LINE
5
98
330
11
100
AcDbEntity
100
AcDbLine
8
Layer_0
10
-19.825
20
8.700000000000001
30
0
11
-19.825
21
16.9
31
0
0
SPLINE
5
99
330
11
100
AcDbEntity
100
AcDbSpline
8
Layer_0
210
0
220
0
230
1
70
8
71
3
72
8
73
4
74
0
42
1e-7
43
1e-7
44
1e-10
40
0
40
0
40
0
40
0
40
1
40
1
40
1
40
1
10
-0.15000000000000066
20
16.05
30
0
10
0.15375661240693603
20
16.05
30
0
10
0.3999999999999999
20
15.803756612406938
30
0
10
0.3999999999999999
20
15.5
30
0
0
SPLINE
5
9A
330
11
100
AcDbEntity
100
AcDbSpline
8
Layer_0
210
0
220
0
230
1
70
8
71
3
72
8
73
4
74
0
42
1e-7
43
1e-7
44
1e-10
40
0
40
0
40
0
40
0
40
1
40
1
40
1
40
1
10
0.3999999999999999
20
15.5
30
0
10
0.3999999999999999
20
15.196243387593062
30
0
10
0.15375661240693614
20
14.95
30
0
10
-0.15000000000000055
20
14.95
30
0
0
LINE
5
9B
330
11
100
AcDbEntity
100
AcDbLine
8
Layer_0
10
-0.15000000000000055
20
14.95
30
0
11
-0.8499999999999986
21
14.95
31
0
0
SPLINE
5
9C
330
11
100
AcDbEntity
100
AcDbSpline
8
Layer_0
210
0
220
0
230
1
70
8
71
3
72
8
73
4
74
0
42
1e-7
43
1e-7
44
1e-10
40
0
40
0
40
0
40
0
40
1
40
1
40
1
40
1
10
-0.8499999999999986
20
14.95
30
0
10
-1.1537566124069354
20
14.95
30
0
10
-1.4
20
15.196243387593062
30
0
10
-1.4
20
15.5
30
0
0
SPLINE
5
9D
330
11
100
AcDbEntity
100
AcDbSpline
8
Layer_0
210
0
220
0
230
1
70
8
71
3
72
8
73
4
74
0
42
1e-7
43
1e-7
44
1e-10
40
0
40
0
40
0
40
0
40
1
40
1
40
1
40
1
10
-1.4
20
15.5
30
0
10
-1.4
20
15.803756612406938
30
0
10
-1.153756612406936
20
16.05
30
0
10
-0.8499999999999994
20
16.05
30
0
0
LINE
5
9E
330
11
100
AcDbEntity
100
AcDbLine
8
Layer_0
10
-0.8499999999999994
20
16.05
30
0
11
-0.15000000000000066
21
16.05
31
0
0
ENDSEC
0
SECTION
2
OBJECTS
0
DICTIONARY
5
1
330
0
100
AcDbDictionary
281
1
3
ACAD_GROUP
350
15
0
DICTIONARY
5
15
330
1
100
AcDbDictionary
281
1
0
ENDSEC
0
EOF